<svg xmlns="http://www.w3.org/2000/svg" viewBox="0 0 450.55 410.42"><g id="b77b5312-997b-40d5-b27b-71494eb8386a" data-name="Layer 2"><g id="effe9ab8-8c4e-4d4e-9ba7-de085e8416a3" data-name="Layer 1"><text transform="translate(74.99 153.39)" font-size="104.44" fill="#1f222c" font-family="BebasNeueBold, Bebas Neue">Food <tspan x="0" y="125.32">Man</tspan><tspan x="143.6" y="125.32" letter-spacing="0em">a</tspan><tspan x="186" y="125.32">ger</tspan></text><path d="M105.5,367.06H18.28a6.9,6.9,0,0,1-6.91-6.85v-342a6.91,6.91,0,0,1,6.91-6.85h414a6.91,6.91,0,0,1,6.91,6.85v342a6.9,6.9,0,0,1-6.91,6.85H308.54" fill="none" stroke="#1f222c" stroke-miterlimit="10" stroke-width="22.74"/><path d="M107,378.38V355.71c5.19,0,12.6-2,12.6-5.95q0-5.44-6-5.45t-6,7.47v56.49H81.89V354.44a46.72,46.72,0,0,1,1.68-13.71,27.68,27.68,0,0,1,5.73-10,32.1,32.1,0,0,1,11.4-8.1,34.93,34.93,0,0,1,14.12-3A30.25,30.25,0,0,1,137,328.55a29.68,29.68,0,0,1,9,22q0,12.72-8,20.64-7.35,7.27-22.17,7.28Z" fill="#c06b43"/><path d="M182.25,345.07v63.2H156.54V321.83h33q15.08,0,23.37,7.48a27.34,27.34,0,0,1,9.24,21.21q0,13.11-11.46,22.1l14.82,35.65h-27l-12.48-27.86V358.18h2q8.1,0,8.1-7,0-6.13-9.37-6.14Z" fill="#c06b43"/><path d="M275.08,319.68q18.36,0,31.5,13.36a45.41,45.41,0,0,1-64.36,64.08,45.36,45.36,0,0,1,.09-64.27Q255.71,319.68,275.08,319.68Zm-.76,25.46A18,18,0,0,0,260.83,351a20.48,20.48,0,0,0,0,28.12,18.57,18.57,0,0,0,27,0,20.69,20.69,0,0,0,0-28.18A18,18,0,0,0,274.32,345.14Z" fill="#c06b43"/></g></g></svg>